<svg xmlns="http://www.w3.org/2000/svg" viewBox="0 0 1920 1080" width="1920" height="1080">
<defs><marker id="ah" markerWidth="6" markerHeight="6" refX="3" refY="3" orient="auto"><path d="M0,0 L6,3 L0,6 Z" fill="#14121C"/></marker></defs>
<rect width="1920" height="1080" fill="#1F2540"/>
<circle cx="0" cy="150" r="120" fill="#C7D0E0" opacity="0.08"/><circle cx="337" cy="361" r="173" fill="#C7D0E0" opacity="0.08"/><circle cx="674" cy="572" r="226" fill="#C7D0E0" opacity="0.08"/><circle cx="1011" cy="783" r="139" fill="#C7D0E0" opacity="0.08"/><circle cx="1348" cy="994" r="192" fill="#C7D0E0" opacity="0.08"/><circle cx="1685" cy="325" r="245" fill="#C7D0E0" opacity="0.08"/><circle cx="102" cy="536" r="158" fill="#C7D0E0" opacity="0.08"/><circle cx="439" cy="747" r="211" fill="#C7D0E0" opacity="0.08"/><circle cx="776" cy="958" r="124" fill="#C7D0E0" opacity="0.08"/><circle cx="1113" cy="289" r="177" fill="#C7D0E0" opacity="0.08"/><circle cx="1450" cy="500" r="230" fill="#C7D0E0" opacity="0.08"/><circle cx="1787" cy="711" r="143" fill="#C7D0E0" opacity="0.08"/><circle cx="204" cy="922" r="196" fill="#C7D0E0" opacity="0.08"/><circle cx="541" cy="253" r="249" fill="#C7D0E0" opacity="0.08"/><g><rect x="929.2" y="538.0" width="61.60000000000001" height="79.2" fill="#3B4A6B" stroke="#14121C" stroke-width="6.6000000000000005"/><rect x="902.8" y="560" width="26.400000000000002" height="35.2" fill="#8A5A3C" stroke="#14121C" stroke-width="4.4"/><circle cx="960" cy="494.0" r="44.0" fill="#F2B84B" stroke="#14121C" stroke-width="6.6000000000000005"/></g><text x="960" y="160" font-size="56" text-anchor="middle" fill="#FFF1C9">0:00</text><ellipse cx="300" cy="300" rx="16.0" ry="9.0" fill="#C7D0E0" stroke="#14121C" stroke-width="2"/><ellipse cx="1650" cy="850" rx="16.0" ry="9.0" fill="#C7D0E0" stroke="#14121C" stroke-width="2"/>
<rect x="0" y="0" width="1920" height="90" fill="#14121C" opacity="0.85"/>
<text x="30" y="60" font-size="44" fill="#FFF1C9" font-family="Helvetica">P2 · Run begins</text>
<text x="1890" y="60" font-size="34" fill="#F2B84B" font-family="Helvetica" text-anchor="end">Medium · Top-down · Static</text>
<rect x="4" y="4" width="1912" height="1072" fill="none" stroke="#FFF1C9" stroke-width="8"/>
</svg>